<svg width="32" height="32" viewBox="0 0 32 32" fill="none" xmlns="http://www.w3.org/2000/svg">
<mask id="path-1-outside-1" maskUnits="userSpaceOnUse" x="3" y="3" width="26" height="26" fill="black">
<rect fill="white" x="3" y="3" width="26" height="26"/>
<path fill-rule="evenodd" clip-rule="evenodd" d="M27.4798 8.9211H8.92638L8.54811 6.80353C8.31494 5.49999 7.2932 4.4803 5.98925 4.2498L4.61776 4.00822C4.33185 3.95732 4.05907 4.148 4.00817 4.43371C3.95747 4.71962 4.14795 4.9924 4.43386 5.0433L5.81048 5.28488C6.6791 5.43882 7.35909 6.11882 7.51303 6.98744L9.37301 17.4805C9.59263 18.736 10.6835 19.6518 11.9581 19.6506H22.9924C24.1517 19.6541 25.1754 18.8953 25.5094 17.7853L27.979 9.59884C28.0247 9.43915 27.9958 9.26715 27.9001 9.13128C27.8002 8.99971 27.6448 8.92213 27.4798 8.9211ZM24.5057 17.4751C24.3074 18.1418 23.6931 18.5978 22.9977 18.5944H11.9635C11.1981 18.5964 10.5429 18.0457 10.4134 17.2912L9.11562 9.96665H26.7756L24.5057 17.4751Z"/>
<path fill-rule="evenodd" clip-rule="evenodd" d="M11.9005 21.9167C10.3217 21.9167 9.04199 23.1965 9.04199 24.7753C9.04199 26.3539 10.3217 27.6336 11.9005 27.6336C13.4791 27.6336 14.7588 26.3539 14.7588 24.7753C14.7572 23.1973 13.4785 21.9184 11.9005 21.9167ZM11.9005 26.5827C10.9022 26.5827 10.0929 25.7734 10.0929 24.7753C10.0929 23.7769 10.9022 22.9676 11.9005 22.9676C12.8987 22.9676 13.708 23.7769 13.708 24.7753C13.708 25.7734 12.8987 26.5827 11.9005 26.5827Z"/>
<path fill-rule="evenodd" clip-rule="evenodd" d="M20.0762 24.7753C20.0762 23.1965 21.3559 21.9167 22.9347 21.9167C24.5127 21.9184 25.7914 23.1973 25.793 24.7753C25.793 26.3539 24.5133 27.6336 22.9347 27.6336C21.3559 27.6336 20.0762 26.3539 20.0762 24.7753ZM21.1271 24.7753C21.1271 25.7734 21.9364 26.5827 22.9347 26.5827C23.9328 26.5827 24.7421 25.7734 24.7421 24.7753C24.7421 23.7769 23.9328 22.9676 22.9347 22.9676C21.9364 22.9676 21.1271 23.7769 21.1271 24.7753Z"/>
</mask>
<path fill-rule="evenodd" clip-rule="evenodd" d="M27.4798 8.9211H8.92638L8.54811 6.80353C8.31494 5.49999 7.2932 4.4803 5.98925 4.2498L4.61776 4.00822C4.33185 3.95732 4.05907 4.148 4.00817 4.43371C3.95747 4.71962 4.14795 4.9924 4.43386 5.0433L5.81048 5.28488C6.6791 5.43882 7.35909 6.11882 7.51303 6.98744L9.37301 17.4805C9.59263 18.736 10.6835 19.6518 11.9581 19.6506H22.9924C24.1517 19.6541 25.1754 18.8953 25.5094 17.7853L27.979 9.59884C28.0247 9.43915 27.9958 9.26715 27.9001 9.13128C27.8002 8.99971 27.6448 8.92213 27.4798 8.9211ZM24.5057 17.4751C24.3074 18.1418 23.6931 18.5978 22.9977 18.5944H11.9635C11.1981 18.5964 10.5429 18.0457 10.4134 17.2912L9.11562 9.96665H26.7756L24.5057 17.4751Z" fill="black"/>
<path fill-rule="evenodd" clip-rule="evenodd" d="M11.9005 21.9167C10.3217 21.9167 9.04199 23.1965 9.04199 24.7753C9.04199 26.3539 10.3217 27.6336 11.9005 27.6336C13.4791 27.6336 14.7588 26.3539 14.7588 24.7753C14.7572 23.1973 13.4785 21.9184 11.9005 21.9167ZM11.9005 26.5827C10.9022 26.5827 10.0929 25.7734 10.0929 24.7753C10.0929 23.7769 10.9022 22.9676 11.9005 22.9676C12.8987 22.9676 13.708 23.7769 13.708 24.7753C13.708 25.7734 12.8987 26.5827 11.9005 26.5827Z" fill="black"/>
<path fill-rule="evenodd" clip-rule="evenodd" d="M20.0762 24.7753C20.0762 23.1965 21.3559 21.9167 22.9347 21.9167C24.5127 21.9184 25.7914 23.1973 25.793 24.7753C25.793 26.3539 24.5133 27.6336 22.9347 27.6336C21.3559 27.6336 20.0762 26.3539 20.0762 24.7753ZM21.1271 24.7753C21.1271 25.7734 21.9364 26.5827 22.9347 26.5827C23.9328 26.5827 24.7421 25.7734 24.7421 24.7753C24.7421 23.7769 23.9328 22.9676 22.9347 22.9676C21.9364 22.9676 21.1271 23.7769 21.1271 24.7753Z" fill="black"/>
<path fill-rule="evenodd" clip-rule="evenodd" d="M27.4798 8.9211H8.92638L8.54811 6.80353C8.31494 5.49999 7.2932 4.4803 5.98925 4.2498L4.61776 4.00822C4.33185 3.95732 4.05907 4.148 4.00817 4.43371C3.95747 4.71962 4.14795 4.9924 4.43386 5.0433L5.81048 5.28488C6.6791 5.43882 7.35909 6.11882 7.51303 6.98744L9.37301 17.4805C9.59263 18.736 10.6835 19.6518 11.9581 19.6506H22.9924C24.1517 19.6541 25.1754 18.8953 25.5094 17.7853L27.979 9.59884C28.0247 9.43915 27.9958 9.26715 27.9001 9.13128C27.8002 8.99971 27.6448 8.92213 27.4798 8.9211ZM24.5057 17.4751C24.3074 18.1418 23.6931 18.5978 22.9977 18.5944H11.9635C11.1981 18.5964 10.5429 18.0457 10.4134 17.2912L9.11562 9.96665H26.7756L24.5057 17.4751Z" stroke="black" mask="url(#path-1-outside-1)"/>
<path fill-rule="evenodd" clip-rule="evenodd" d="M11.9005 21.9167C10.3217 21.9167 9.04199 23.1965 9.04199 24.7753C9.04199 26.3539 10.3217 27.6336 11.9005 27.6336C13.4791 27.6336 14.7588 26.3539 14.7588 24.7753C14.7572 23.1973 13.4785 21.9184 11.9005 21.9167ZM11.9005 26.5827C10.9022 26.5827 10.0929 25.7734 10.0929 24.7753C10.0929 23.7769 10.9022 22.9676 11.9005 22.9676C12.8987 22.9676 13.708 23.7769 13.708 24.7753C13.708 25.7734 12.8987 26.5827 11.9005 26.5827Z" stroke="black" mask="url(#path-1-outside-1)"/>
<path fill-rule="evenodd" clip-rule="evenodd" d="M20.0762 24.7753C20.0762 23.1965 21.3559 21.9167 22.9347 21.9167C24.5127 21.9184 25.7914 23.1973 25.793 24.7753C25.793 26.3539 24.5133 27.6336 22.9347 27.6336C21.3559 27.6336 20.0762 26.3539 20.0762 24.7753ZM21.1271 24.7753C21.1271 25.7734 21.9364 26.5827 22.9347 26.5827C23.9328 26.5827 24.7421 25.7734 24.7421 24.7753C24.7421 23.7769 23.9328 22.9676 22.9347 22.9676C21.9364 22.9676 21.1271 23.7769 21.1271 24.7753Z" stroke="black" mask="url(#path-1-outside-1)"/>
</svg>
