<svg width="18" height="17" viewBox="0 0 18 17" fill="none" xmlns="http://www.w3.org/2000/svg">
<path d="M12.8102 17C12.1585 16.9952 11.5097 16.9134 10.8772 16.7563C8.69294 16.2293 6.44372 14.8924 4.54485 12.9919C2.64598 11.0914 1.30745 8.84171 0.780446 6.65955C0.225534 4.36409 0.621305 2.40023 1.8936 1.12793L2.25688 0.764654C2.58648 0.435716 3.03311 0.250977 3.49877 0.250977C3.96442 0.250977 4.41105 0.435716 4.74065 0.764654L6.82824 2.85182C7.15738 3.18131 7.34226 3.62799 7.34226 4.09371C7.34226 4.55943 7.15738 5.00611 6.82824 5.3356L5.5951 6.56832C6.18626 7.60565 6.9903 8.64382 7.94056 9.59409C8.89083 10.5444 9.92983 11.3488 10.9668 11.94L12.1995 10.7068C12.3625 10.5437 12.5561 10.4143 12.7692 10.326C12.9823 10.2377 13.2107 10.1923 13.4414 10.1923C13.672 10.1923 13.9004 10.2377 14.1135 10.326C14.3266 10.4143 14.5202 10.5437 14.6832 10.7068L16.7704 12.794C17.0996 13.1234 17.2846 13.57 17.2846 14.0357C17.2846 14.5014 17.0996 14.948 16.7704 15.2774L16.4067 15.6406C15.5098 16.5392 14.2683 17 12.8102 17ZM3.49877 1.49995C3.43225 1.49962 3.36634 1.51257 3.30489 1.53804C3.24344 1.56351 3.18769 1.60098 3.14091 1.64826L2.77721 2.01154C1.82445 2.96431 1.54616 4.51114 1.99359 6.3646C2.46726 8.32804 3.68665 10.3681 5.42679 12.1079C7.16693 13.8476 9.20661 15.0657 11.1705 15.5411C13.0243 15.9885 14.5703 15.7102 15.5231 14.7574L15.8864 14.3942C15.9813 14.2992 16.0346 14.1704 16.0346 14.0361C16.0346 13.9018 15.9813 13.773 15.8864 13.678L13.7996 11.5909C13.7046 11.4959 13.5759 11.4426 13.4416 11.4426C13.3073 11.4426 13.1785 11.4959 13.0835 11.5909L11.5208 13.1535C11.4271 13.2473 11.3059 13.3089 11.1748 13.3293C11.0437 13.3496 10.9096 13.3278 10.7918 13.2668C9.51073 12.6044 8.21927 11.64 7.05695 10.4777C5.89464 9.31538 4.93229 8.02476 4.26823 6.74371C4.20724 6.62593 4.18531 6.49181 4.20561 6.36074C4.22591 6.22968 4.28738 6.10847 4.38113 6.01466L5.94421 4.45199C6.03913 4.357 6.09245 4.2282 6.09245 4.09392C6.09245 3.95963 6.03913 3.83084 5.94421 3.73585L3.85704 1.64826C3.81011 1.60106 3.75428 1.56364 3.69277 1.53819C3.63127 1.51273 3.56533 1.49973 3.49877 1.49995Z" fill="#535A5F"/>
</svg>
