<svg width="16" height="17" viewBox="0 0 16 17" fill="none" xmlns="http://www.w3.org/2000/svg">
<path fill-rule="evenodd" clip-rule="evenodd" d="M16 3.66675H0V6.33341C0.98184 6.33341 1.77778 7.12936 1.77778 8.1112V11.0001C1.77778 13.8285 1.77778 15.2427 2.65646 16.1214C3.53514 17.0001 4.94935 17.0001 7.77777 17.0001H8.22222C11.0506 17.0001 12.4649 17.0001 13.3435 16.1214C14.2222 15.2427 14.2222 13.8285 14.2222 11.0001V8.11119C14.2222 7.12935 15.0182 6.33341 16 6.33341V3.66675ZM6.77778 8.11111C6.77778 7.55883 6.33006 7.11111 5.77778 7.11111C5.22549 7.11111 4.77778 7.55883 4.77778 8.11111V12.5556C4.77778 13.1078 5.22549 13.5556 5.77778 13.5556C6.33006 13.5556 6.77778 13.1078 6.77778 12.5556V8.11111ZM11.2222 8.11111C11.2222 7.55883 10.7745 7.11111 10.2222 7.11111C9.66994 7.11111 9.22222 7.55883 9.22222 8.11111V12.5556C9.22222 13.1078 9.66994 13.5556 10.2222 13.5556C10.7745 13.5556 11.2222 13.1078 11.2222 12.5556V8.11111Z" fill="black"/>
<path d="M6.28236 1.32941C6.38365 1.23491 6.60684 1.1514 6.91732 1.09184C7.2278 1.03228 7.60822 1 7.99957 1C8.39092 1 8.77133 1.03228 9.08181 1.09184C9.39229 1.1514 9.61548 1.23491 9.71677 1.32941" stroke="black" stroke-width="2" stroke-linecap="round"/>
</svg>
