<svg width="32" height="32" viewBox="0 0 32 32" fill="none" xmlns="http://www.w3.org/2000/svg">
<path d="M15.196 25.5927V25.6927H15.296H25.5923H25.6923V25.5927V7.37608V7.27608H25.5923H15.296H15.196V7.37608V8.56412C15.196 8.85268 15.0814 9.12943 14.8773 9.33348C14.6733 9.53752 14.3965 9.65216 14.108 9.65216C13.8194 9.65216 13.5426 9.53752 13.3386 9.33348C13.1346 9.12943 13.0199 8.85268 13.0199 8.56412V6.98006C13.0199 6.48144 13.218 6.00324 13.5706 5.65066C13.9232 5.29808 14.4014 5.1 14.9 5.1H25.9883C26.487 5.1 26.9652 5.29808 27.3178 5.65066C27.6703 6.00324 27.8684 6.48144 27.8684 6.98006V25.9887C27.8684 26.4873 27.6703 26.9655 27.3178 27.3181C26.9652 27.6707 26.487 27.8687 25.9883 27.8687H14.9C14.4014 27.8687 13.9232 27.6707 13.5706 27.3181C13.218 26.9655 13.0199 26.4873 13.0199 25.9887V24.4046C13.0199 24.1161 13.1346 23.8393 13.3386 23.6353C13.5426 23.4312 13.8194 23.3166 14.108 23.3166C14.3965 23.3166 14.6733 23.4312 14.8773 23.6353C15.0814 23.8393 15.196 24.1161 15.196 24.4046V25.5927ZM22.7979 17.2536L18.3177 21.7338L18.3175 21.734C18.1133 21.937 17.837 22.0508 17.549 22.0504C17.2609 22.05 16.9848 21.9354 16.7811 21.7318C16.5774 21.5281 16.4628 21.2519 16.4624 20.9639C16.462 20.6759 16.5758 20.3995 16.7789 20.1953C16.7789 20.1952 16.779 20.1952 16.779 20.1951L19.2311 17.7431L19.4018 17.5724H19.1604H6.18804C5.89947 17.5724 5.62273 17.4577 5.41868 17.2537C5.21463 17.0496 5.1 16.7729 5.1 16.4843C5.1 16.1957 5.21463 15.919 5.41868 15.715C5.62273 15.5109 5.89947 15.3963 6.18804 15.3963H19.1604H19.4018L19.2311 15.2256L16.7788 12.7733C16.5748 12.5693 16.4602 12.2925 16.4602 12.0039C16.4602 11.7154 16.5748 11.4386 16.7788 11.2346C16.9829 11.0305 17.2596 10.9159 17.5482 10.9159C17.8368 10.9159 18.1135 11.0305 18.3175 11.2346L22.7979 15.7149C23.002 15.919 23.1166 16.1957 23.1166 16.4843C23.1166 16.7729 23.002 17.0496 22.7979 17.2536Z" fill="black" stroke="white" stroke-width="0.2"/>
</svg>
