<svg width="32" height="32" viewBox="0 0 32 32" fill="none" xmlns="http://www.w3.org/2000/svg">
<path d="M16 25C16 25 5 18.9545 5 11.6136C5.00022 10.3162 5.45832 9.05883 6.2964 8.05537C7.13448 7.05192 8.30082 6.36429 9.59711 6.10941C10.8934 5.85453 12.2396 6.04812 13.4069 6.65727C14.5742 7.26642 15.4905 8.25353 16 9.45077C16.5095 8.25353 17.4258 7.26643 18.5931 6.65728C19.7604 6.04812 21.1066 5.85453 22.4029 6.10941C23.6992 6.36429 24.8655 7.05191 25.7036 8.05537C26.5417 9.05883 26.9998 10.3162 27 11.6136C27 18.9545 16 25 16 25Z" stroke="black" stroke-width="2" stroke-linecap="round" stroke-linejoin="round"/>
</svg>
