<svg width="25" height="25" viewBox="0 0 25 25" fill="none" xmlns="http://www.w3.org/2000/svg">
<path d="M19.8968 5.74021C19.806 5.51881 19.6555 5.33055 19.464 5.19891C19.2726 5.06728 19.0486 4.99811 18.8202 5.00004H6.17725C5.94918 5.00004 5.72602 5.07001 5.53489 5.20142C5.34376 5.33284 5.1929 5.52006 5.10063 5.74031C5.00837 5.96057 4.97868 6.20438 5.01517 6.44212C5.05165 6.67986 5.15275 6.90129 5.30618 7.0795L10.1442 12.6993V18.7565C10.1441 18.9815 10.2018 19.2024 10.3113 19.3955C10.4208 19.5887 10.5778 19.7468 10.7658 19.853C10.9537 19.9592 11.1654 20.0095 11.3783 19.9985C11.5911 19.9876 11.7972 19.9158 11.9745 19.7908L14.3289 18.1334C14.4903 18.02 14.6227 17.8662 14.7142 17.6857C14.8056 17.5052 14.8534 17.3037 14.8532 17.0989V12.6993L19.6913 7.07943C19.8463 6.9022 19.9485 6.68067 19.985 6.4425C20.0216 6.20433 19.9909 5.96007 19.8968 5.74021Z" fill="#535A5F"/>
</svg>
