<svg width="10" height="18" viewBox="0 0 10 18" fill="none" xmlns="http://www.w3.org/2000/svg">
<path d="M8.73592 11.7385C7.84623 12.3501 6.6221 12.5926 5.81359 12.6839L6.49222 13.4079L8.9697 16.0895C9.87562 17.0947 8.40147 18.6657 7.48581 17.6957C6.86563 17.0138 5.95646 16.0298 5.00833 15.0035L2.53085 17.6922C1.61519 18.6586 0.141037 17.0736 1.0567 16.086C1.68662 15.4042 2.58605 14.4201 3.53418 13.4044L4.20307 12.6804C3.4043 12.5891 2.16069 12.3606 1.26126 11.735C0.202731 10.997 -0.261594 10.5647 0.147531 9.66145C0.387811 9.14832 1.04696 8.71604 1.92041 9.46112C1.92041 9.46112 3.09908 10.4768 5.00184 10.4768C6.90459 10.4768 8.08326 9.46112 8.08326 9.46112C8.95671 8.71955 9.61261 9.14832 9.85614 9.66145C10.2588 10.5647 9.79445 10.997 8.73592 11.7385ZM0.787195 4.55835C0.787195 2.03843 2.68021 0 4.99859 0C7.31697 0 9.20998 2.03843 9.20998 4.55835C9.20998 7.06772 7.31697 9.10615 4.99859 9.10615C2.68021 9.10615 0.787195 7.06772 0.787195 4.55835ZM2.93023 4.55835C2.93023 5.79195 3.85888 6.7971 4.99859 6.7971C6.1383 6.7971 7.06694 5.79195 7.06694 4.55835C7.06694 3.3142 6.1383 2.30905 4.99859 2.30905C3.85888 2.30905 2.93023 3.3142 2.93023 4.55835Z" fill="#535A5F"/>
</svg>
