<svg width="24" height="23" viewBox="0 0 24 23" fill="none" xmlns="http://www.w3.org/2000/svg">
<path d="M22.7035 20.6983L23.0007 20.4108L22.7035 20.1233L16.5694 14.1899C17.7858 12.7561 18.5178 10.919 18.5178 8.91667C18.5178 4.31415 14.6586 0.6 9.9334 0.6C5.20822 0.6 1.34902 4.31415 1.34902 8.91667C1.34902 13.5192 5.20822 17.2333 9.9334 17.2333C12.0022 17.2333 13.9031 16.5227 15.3868 15.3374L21.5382 21.2875L21.8163 21.5565L22.0944 21.2875L22.7035 20.6983ZM9.9334 2.23333C13.7665 2.23333 16.8563 5.24085 16.8563 8.91667C16.8563 12.5925 13.7665 15.6 9.9334 15.6C6.10031 15.6 3.01054 12.5925 3.01054 8.91667C3.01054 5.24085 6.10031 2.23333 9.9334 2.23333Z" fill="black" stroke="black" stroke-width="0.8"/>
</svg>
