<svg width="20" height="20" viewBox="0 0 20 20" fill="none" xmlns="http://www.w3.org/2000/svg">
<path fill-rule="evenodd" clip-rule="evenodd" d="M16.5231 4.47052C14.925 2.87822 12.7997 2.00093 10.5356 2C5.86998 2 2.07288 5.77883 2.071 10.4233C2.07037 11.908 2.46009 13.3573 3.20085 14.6348L2 19L6.48719 17.8286C7.72359 18.4998 9.11555 18.8535 10.5321 18.8539H10.5357C15.2007 18.8539 18.9982 15.0748 19 10.4301C19.0009 8.1791 18.1213 6.06271 16.5231 4.47052ZM10.5356 17.4313H10.5326C9.27027 17.4307 8.0322 17.0931 6.95187 16.4553L6.69508 16.3035L4.03231 16.9987L4.74305 14.415L4.57571 14.1501C3.87144 13.0353 3.49955 11.7468 3.50018 10.4238C3.50164 6.56346 6.65776 3.42275 10.5384 3.42275C12.4175 3.42338 14.184 4.1526 15.5122 5.47606C16.8405 6.79951 17.5716 8.55865 17.5709 10.4295C17.5693 14.2902 14.4133 17.4313 10.5356 17.4313ZM14.3946 12.1873C14.1831 12.0819 13.1433 11.5729 12.9493 11.5025C12.7556 11.4323 12.6145 11.3973 12.4736 11.6079C12.3326 11.8186 11.9273 12.2928 11.8039 12.4331C11.6804 12.5736 11.5572 12.5913 11.3456 12.4859C11.1341 12.3805 10.4527 12.1582 9.64477 11.4411C9.01609 10.883 8.59165 10.1937 8.46821 9.98307C8.34497 9.77223 8.46716 9.6693 8.561 9.5535C8.78995 9.27055 9.01921 8.9739 9.08969 8.83351C9.16028 8.69302 9.12493 8.57007 9.07197 8.46475C9.01921 8.35944 8.59624 7.32339 8.42004 6.90182C8.24822 6.49155 8.07401 6.54696 7.9441 6.54053C7.82087 6.53441 7.6798 6.53316 7.53874 6.53316C7.39778 6.53316 7.16862 6.58577 6.9747 6.79661C6.78089 7.00734 6.23457 7.51649 6.23457 8.55253C6.23457 9.58857 6.99243 10.5894 7.09814 10.7299C7.20386 10.8704 8.58956 12.9965 10.7111 13.9081C11.2157 14.1252 11.6096 14.2545 11.9169 14.3516C12.4236 14.5118 12.8845 14.4891 13.249 14.435C13.6554 14.3745 14.5002 13.9257 14.6766 13.4341C14.8528 12.9424 14.8528 12.521 14.7998 12.4331C14.7471 12.3454 14.606 12.2928 14.3946 12.1873Z" fill="#535A5F"/>
</svg>
