<svg width="17" height="16" viewBox="0 0 17 16" fill="none" xmlns="http://www.w3.org/2000/svg">
<path d="M0.293379 7.9304L4.45059 10.0023C4.61138 10.0816 4.80121 10.0759 4.95492 9.98598L8.65526 7.83477L6.4155 9.81952C6.30146 9.92082 6.2363 10.0653 6.2363 10.2176V15.052C6.2363 15.562 6.88725 15.7766 7.19255 15.3714L8.98959 12.9822L13.4337 15.5131C13.7453 15.6923 14.1448 15.5124 14.2171 15.1561L16.9888 1.34361C17.0717 0.928524 16.6587 0.58994 16.2748 0.744357L0.337295 6.95998C-0.0905381 7.12715 -0.118163 7.72569 0.293379 7.9304ZM15.7563 2.08736L13.3203 14.2261L9.1093 11.8276C8.8798 11.6966 8.58442 11.7547 8.4215 11.97L7.2988 13.4625V10.4563L13.3558 5.08998C13.8353 4.66569 13.2842 3.91131 12.7367 4.2329L4.66875 8.92348L1.84109 7.51461L15.7563 2.08736Z" fill="#535A5F"/>
</svg>
