<svg width="24" height="21" viewBox="0 0 24 21" fill="none" xmlns="http://www.w3.org/2000/svg">
<path d="M12 20C12 20 1 13.9545 1 6.61364C1.00022 5.31617 1.45832 4.05883 2.2964 3.05537C3.13448 2.05192 4.30082 1.36429 5.59711 1.10941C6.8934 0.854528 8.23963 1.04812 9.40692 1.65727C10.5742 2.26642 11.4905 3.25353 12 4.45077L12 4.45078C12.5095 3.25354 13.4258 2.26643 14.5931 1.65728C15.7604 1.04812 17.1066 0.854529 18.4029 1.10941C19.6992 1.36429 20.8655 2.05191 21.7036 3.05537C22.5417 4.05883 22.9998 5.31617 23 6.61364C23 13.9545 12 20 12 20Z" stroke="#7F06B8" stroke-width="2" stroke-linecap="round" stroke-linejoin="round"/>
</svg>
