<svg width="24" height="21" viewBox="0 0 24 21" fill="none" xmlns="http://www.w3.org/2000/svg">
<path d="M17.3333 9.65836e-06C16.2985 -0.00173994 15.2776 0.234237 14.3517 0.689171C13.4258 1.1441 12.6206 1.80544 12 2.62058C11.1595 1.51976 9.98865 0.707001 8.65308 0.297294C7.31751 -0.112413 5.88487 -0.0983164 4.55789 0.33759C3.2309 0.773496 2.07677 1.60914 1.25881 2.72627C0.440848 3.8434 0.00047277 5.18544 0 6.56251C0 14.4225 11.0934 20.6281 11.5656 20.8884C11.6984 20.9616 11.8479 21 12 21C12.1521 21 12.3016 20.9616 12.4344 20.8884C14.4746 19.7121 16.3895 18.3368 18.1502 16.7832C22.0318 13.3443 24 9.90554 24 6.56251C23.998 4.82263 23.295 3.15458 22.0452 1.9243C20.7954 0.694019 19.1008 0.00198164 17.3333 9.65836e-06Z" fill="#7F06B8"/>
</svg>
