<svg width="44" height="44" viewBox="0 0 44 44" fill="none" xmlns="http://www.w3.org/2000/svg">
<path fill-rule="evenodd" clip-rule="evenodd" d="M41.8564 18.101L43.6282 20.7917C44.1028 21.5202 44.1156 22.4566 43.6611 23.1979L41.8889 25.8882C41.3788 26.6734 41.1297 27.5996 41.178 28.5349L41.3532 31.7835C41.3989 32.6534 40.9272 33.4681 40.1501 33.8616L37.2735 35.3159C36.4374 35.7367 35.7586 36.4156 35.3378 37.2521L33.883 40.1282C33.4878 40.9036 32.6744 41.3744 31.805 41.3313L28.5567 41.1565C27.6211 41.1027 26.6927 41.3522 25.9101 41.8674L23.2194 43.6392C22.4896 44.1202 21.5433 44.1202 20.8132 43.6392L18.1229 41.8674C17.4047 41.3966 16.5644 41.1454 15.7056 41.1454C15.6604 41.1454 15.6181 41.1484 15.5772 41.1513C15.539 41.1539 15.5021 41.1565 15.4651 41.1565L12.2169 41.3313C11.347 41.3774 10.5319 40.9053 10.1388 40.1282L8.68411 37.2521C8.26328 36.4156 7.58441 35.7367 6.74832 35.3159L3.87178 33.8616C3.09636 33.466 2.62555 32.6525 2.6687 31.7835L2.84343 28.5349C2.89727 27.5992 2.64776 26.6713 2.13252 25.8882L0.360796 23.1979C-0.120265 22.4678 -0.120265 21.5214 0.360796 20.7917L2.12184 18.1121C2.63196 17.3269 2.88103 16.4002 2.83275 15.465L2.65759 12.2168C2.61188 11.3469 3.08354 10.5322 3.86067 10.1387L6.73722 8.684C7.57373 8.26361 8.25218 7.58474 8.673 6.74822L10.1277 3.87167C10.5233 3.09668 11.3368 2.62587 12.2058 2.66859L15.454 2.84376C16.3896 2.89716 17.318 2.64808 18.1007 2.13284L20.7914 0.361117C21.5211 -0.120372 22.4679 -0.120372 23.1976 0.361117L25.8883 2.14395C26.6731 2.65406 27.5998 2.90314 28.535 2.85486L31.7721 2.65791C32.6419 2.61177 33.4571 3.08386 33.8501 3.86099L35.3049 6.73754C35.7257 7.57363 36.4045 8.2525 37.2406 8.67332L40.1172 10.128C40.8926 10.5232 41.3634 11.3367 41.3203 12.2061L41.1455 15.4543C41.0917 16.39 41.3412 17.3179 41.8564 18.101Z" fill="#E32F2F"/>
<path d="M28.3643 32.5605H22.948C21.8913 32.5614 20.8429 32.373 19.8527 32.0041L15.6334 30.4371C15.4023 30.349 15.2154 30.1732 15.1134 29.9479C15.0113 29.7226 15.0024 29.4662 15.0885 29.2344C15.1747 29.0025 15.3489 28.8141 15.5733 28.7102C15.7977 28.6062 16.0541 28.5952 16.2866 28.6794L20.5053 30.2464C21.2869 30.5369 22.1142 30.6851 22.948 30.684H28.3643C28.5999 30.684 28.8258 30.5904 28.9924 30.4238C29.1589 30.2573 29.2525 30.0313 29.2525 29.7958C29.2525 29.5602 29.1589 29.3343 28.9924 29.1677C28.8258 29.0011 28.5999 28.9075 28.3643 28.9075C28.1156 28.9075 27.8771 28.8087 27.7013 28.6329C27.5255 28.4571 27.4267 28.2186 27.4267 27.9699C27.4267 27.7212 27.5255 27.4828 27.7013 27.3069C27.8771 27.1311 28.1156 27.0323 28.3643 27.0323H29.6426C29.8781 27.0323 30.1041 26.9387 30.2706 26.7722C30.4372 26.6056 30.5308 26.3797 30.5308 26.1441C30.5308 25.9085 30.4372 25.6826 30.2706 25.516C30.1041 25.3494 29.8781 25.2558 29.6426 25.2558C29.3939 25.2558 29.1554 25.1571 28.9796 24.9812C28.8037 24.8054 28.705 24.5669 28.705 24.3182C28.705 24.0696 28.8037 23.8311 28.9796 23.6553C29.1554 23.4794 29.3939 23.3806 29.6426 23.3806H30.9202C31.0959 23.3807 31.2677 23.3286 31.4138 23.231C31.5599 23.1334 31.6738 22.9947 31.7411 22.8323C31.8083 22.67 31.8259 22.4914 31.7916 22.319C31.7573 22.1467 31.6727 21.9884 31.5484 21.8642C31.4662 21.7814 31.3683 21.7157 31.2604 21.6711C31.1526 21.6264 31.0369 21.6037 30.9202 21.6042C30.6715 21.6042 30.4331 21.5054 30.2572 21.3296C30.0814 21.1537 29.9826 20.9152 29.9826 20.6666C29.9826 20.4179 30.0814 20.1794 30.2572 20.0036C30.4331 19.8277 30.6715 19.729 30.9202 19.729H32.1985C32.3739 19.7284 32.5453 19.6759 32.6909 19.578C32.8366 19.4802 32.95 19.3414 33.0168 19.1792C33.0837 19.017 33.101 18.8386 33.0666 18.6666C33.0322 18.4946 32.9477 18.3366 32.8236 18.2125C32.7417 18.13 32.6444 18.0645 32.5371 18.0197C32.4298 17.975 32.3147 17.9519 32.1985 17.9519H23.345C23.1818 17.9521 23.0214 17.9097 22.8796 17.8289C22.7379 17.7481 22.6196 17.6318 22.5366 17.4913C22.4536 17.3509 22.4087 17.1912 22.4063 17.028C22.4039 16.8649 22.4441 16.7039 22.523 16.5611C22.8078 15.9832 23.0018 15.3648 23.0981 14.7277C23.31 13.3607 23.0487 12.1249 22.3217 11.0548C22.2281 10.9215 22.0946 10.8215 21.9404 10.7691C21.7862 10.7167 21.6193 10.7147 21.4639 10.7635C21.3085 10.8122 21.1726 10.909 21.0759 11.0401C20.9792 11.1711 20.9267 11.3295 20.9259 11.4924C20.9566 14.704 19.4726 17.038 16.6348 18.2432C16.521 18.294 16.3982 18.3217 16.2736 18.3246C16.149 18.3275 16.0251 18.3055 15.9091 18.2599C15.7931 18.2143 15.6873 18.1461 15.598 18.0591C15.5087 17.9722 15.4376 17.8683 15.3889 17.7536C15.3402 17.6389 15.3149 17.5156 15.3144 17.391C15.3139 17.2663 15.3383 17.1428 15.3861 17.0277C15.4338 16.9126 15.5041 16.8082 15.5927 16.7205C15.6814 16.6329 15.7866 16.5638 15.9022 16.5173C17.0724 16.0173 17.925 15.2828 18.4369 14.3246C18.8544 13.5426 19.062 12.5962 19.0513 11.5117C19.042 10.3266 19.7727 9.32649 20.9091 8.9727C22.0454 8.61891 23.2099 9.02145 23.875 10.0016C25.4196 12.2743 25.1408 14.6334 24.7176 16.0779H32.1985C32.822 16.078 33.4272 16.2889 33.9157 16.6765C34.4042 17.064 34.7472 17.6054 34.8891 18.2126C35.031 18.8198 34.9633 19.4571 34.6972 20.021C34.431 20.5848 33.982 21.0421 33.423 21.3185C33.7293 21.9735 33.7671 22.7223 33.5284 23.4047C33.2896 24.0872 32.7932 24.6491 32.1454 24.9702C32.4518 25.6253 32.4897 26.3743 32.2507 27.0569C32.0118 27.7395 31.5152 28.3015 30.8671 28.6225C31.0644 29.0436 31.1524 29.5077 31.1228 29.9718C31.0932 30.4359 30.947 30.8851 30.6977 31.2777C30.4484 31.6703 30.1041 31.9936 29.6967 32.2179C29.2893 32.4421 28.8319 32.5599 28.3668 32.5605H28.3643Z" fill="white"/>
<path d="M16.2724 31.1722H10.9049C10.6562 31.1722 10.4177 31.0734 10.2419 30.8976C10.0661 30.7217 9.96729 30.4833 9.96729 30.2346V17.3812C9.96729 17.1325 10.0661 16.8941 10.2419 16.7182C10.4177 16.5424 10.6562 16.4436 10.9049 16.4436H16.2724C16.5211 16.4436 16.7595 16.5424 16.9354 16.7182C17.1112 16.8941 17.21 17.1325 17.21 17.3812V30.2346C17.21 30.4833 17.1112 30.7217 16.9354 30.8976C16.7595 31.0734 16.5211 31.1722 16.2724 31.1722ZM11.8444 29.297H15.3348V18.3188H11.8425L11.8444 29.297Z" fill="white"/>
</svg>
