<svg width="44" height="44" viewBox="0 0 44 44" fill="none" xmlns="http://www.w3.org/2000/svg">
<path fill-rule="evenodd" clip-rule="evenodd" d="M41.8564 18.101L43.6282 20.7917C44.1028 21.5202 44.1156 22.4566 43.6611 23.1979L41.8889 25.8882C41.3788 26.6734 41.1297 27.5996 41.178 28.5349L41.3532 31.7835C41.3989 32.6534 40.9272 33.4681 40.1501 33.8616L37.2735 35.3159C36.4374 35.7367 35.7586 36.4156 35.3378 37.2521L33.883 40.1282C33.4878 40.9036 32.6744 41.3744 31.805 41.3313L28.5567 41.1565C27.6211 41.1027 26.6927 41.3522 25.9101 41.8674L23.2194 43.6392C22.4896 44.1202 21.5433 44.1202 20.8132 43.6392L18.1229 41.8674C17.4047 41.3966 16.5644 41.1454 15.7056 41.1454C15.6604 41.1454 15.6181 41.1484 15.5772 41.1513C15.539 41.1539 15.5021 41.1565 15.4651 41.1565L12.2169 41.3313C11.347 41.3774 10.5319 40.9053 10.1388 40.1282L8.68411 37.2521C8.26328 36.4156 7.58441 35.7367 6.74832 35.3159L3.87178 33.8616C3.09636 33.466 2.62555 32.6525 2.6687 31.7835L2.84343 28.5349C2.89727 27.5992 2.64776 26.6713 2.13252 25.8882L0.360796 23.1979C-0.120265 22.4678 -0.120265 21.5214 0.360796 20.7917L2.12184 18.1121C2.63196 17.3269 2.88103 16.4002 2.83275 15.465L2.65759 12.2168C2.61188 11.3469 3.08354 10.5322 3.86067 10.1387L6.73722 8.684C7.57373 8.26361 8.25218 7.58474 8.673 6.74822L10.1277 3.87167C10.5233 3.09668 11.3368 2.62587 12.2058 2.66859L15.454 2.84376C16.3896 2.89716 17.318 2.64808 18.1007 2.13284L20.7914 0.361117C21.5211 -0.120372 22.4679 -0.120372 23.1976 0.361117L25.8883 2.14395C26.6731 2.65406 27.5998 2.90314 28.535 2.85486L31.7721 2.65791C32.6419 2.61177 33.4571 3.08386 33.8501 3.86099L35.3049 6.73754C35.7257 7.57363 36.4045 8.2525 37.2406 8.67332L40.1172 10.128C40.8926 10.5232 41.3634 11.3367 41.3203 12.2061L41.1455 15.4543C41.0917 16.39 41.3412 17.3179 41.8564 18.101Z" fill="#83B000"/>
<path d="M27.482 18.2074C27.482 17.2604 27.1604 16.4934 26.5172 15.9062C25.874 15.3191 25.0279 15.0256 23.9789 15.0256H19.2289V21.3892H23.9789C25.0279 21.3892 25.874 21.0956 26.5172 20.5085C27.1604 19.9214 27.482 19.1544 27.482 18.2074ZM31 18.2074C31 20.035 30.3741 21.5265 29.1223 22.6818C27.8704 23.8371 26.2549 24.4148 24.2758 24.4148H19.2289V26.0909H26.725C26.8635 26.0909 26.9773 26.1335 27.0664 26.2188C27.1555 26.304 27.2 26.4129 27.2 26.5455V28.3636C27.2 28.4962 27.1555 28.6051 27.0664 28.6903C26.9773 28.7756 26.8635 28.8182 26.725 28.8182H19.2289V31.5455C19.2289 31.678 19.1819 31.7869 19.0879 31.8722C18.9939 31.9574 18.8826 32 18.7539 32H16.275C16.1365 32 16.0227 31.9574 15.9336 31.8722C15.8445 31.7869 15.8 31.678 15.8 31.5455V28.8182H12.475C12.3365 28.8182 12.2227 28.7756 12.1336 28.6903C12.0445 28.6051 12 28.4962 12 28.3636V26.5455C12 26.4129 12.0445 26.304 12.1336 26.2188C12.2227 26.1335 12.3365 26.0909 12.475 26.0909H15.8V24.4148H12.475C12.3365 24.4148 12.2227 24.3722 12.1336 24.2869C12.0445 24.2017 12 24.0928 12 23.9602V21.8438C12 21.7206 12.0445 21.6141 12.1336 21.5241C12.2227 21.4342 12.3365 21.3892 12.475 21.3892H15.8V12.4545C15.8 12.322 15.8445 12.2131 15.9336 12.1278C16.0227 12.0426 16.1365 12 16.275 12H24.2758C26.2549 12 27.8704 12.5777 29.1223 13.733C30.3741 14.8883 31 16.3797 31 18.2074Z" fill="white"/>
</svg>
