<svg width="30" height="24" viewBox="0 0 30 24" fill="none" xmlns="http://www.w3.org/2000/svg">
<path d="M29.6834 14.618C29.6185 14.5071 29.5187 14.4208 29.3996 14.3726L27.2821 13.5058L29.4753 12.2144C29.7525 12.052 29.8457 11.6957 29.6834 11.4185C29.6185 11.3076 29.5187 11.2213 29.3996 11.173L27.2821 10.3063L29.4753 9.01481C29.6668 8.89955 29.7754 8.68474 29.7545 8.46216C29.7377 8.24233 29.598 8.0508 29.3938 7.96768L21.0575 4.5529L16.9505 2.80769C16.8838 2.78129 16.8128 2.76755 16.7411 2.76697L10.0511 0.0444459C9.88684 -0.0237626 9.70039 -0.0130004 9.54499 0.0735328L0.580452 5.11136C0.293511 5.25585 0.178036 5.60562 0.322525 5.89256C0.388406 6.02345 0.501336 6.12467 0.638625 6.17594L2.80268 7.07181L0.580452 8.31091C0.300855 8.46914 0.202469 8.82414 0.360701 9.10374C0.423601 9.21485 0.521188 9.30211 0.638625 9.35221L2.80268 10.2481L0.592087 11.4872C0.296492 11.6131 0.159057 11.9549 0.285003 12.2504C0.350666 12.4045 0.479521 12.5227 0.638625 12.575L2.80268 13.4651L0.592087 14.7042C0.31249 14.8624 0.214104 15.2174 0.372336 15.497C0.435236 15.6081 0.532822 15.6954 0.65026 15.7455L8.1721 18.9392C8.19959 18.9592 8.22882 18.9767 8.25936 18.9916L12.3722 20.7368L19.9348 23.9538C20.1049 24.026 20.2993 24.013 20.4584 23.9189L29.4753 18.6134C29.7525 18.4511 29.8457 18.0948 29.6834 17.8176C29.6185 17.7067 29.5187 17.6203 29.3996 17.5721L27.2821 16.7053L29.4753 15.4139C29.7525 15.2517 29.8457 14.8953 29.6834 14.618ZM27.8697 11.7956L20.1151 16.3622L13.1808 13.4186V11.4814L19.929 14.3494C20.0007 14.3799 20.0779 14.3958 20.1558 14.3959C20.2603 14.3959 20.3627 14.3678 20.4525 14.3145L26.0197 11.0393L27.8697 11.7956ZM27.8929 8.59021L20.1151 13.1568L13.8149 10.4809L20.9121 5.73971L27.8929 8.59021ZM7.88705 17.5664L2.18022 15.1406L4.14067 14.0411L7.89287 15.635L7.88705 17.5664ZM7.88705 14.3668L2.18022 11.941L4.14067 10.8299L7.89287 12.4238L7.88705 14.3668ZM7.88705 11.1673L2.18022 8.74728L4.14067 7.6478L7.89287 9.24176L7.88705 11.1673ZM2.18022 5.54774L9.87077 1.22544L15.4496 3.51166L8.42225 8.20045L2.18022 5.54774ZM12.2733 10.1202C12.113 10.2285 12.0171 10.4095 12.0174 10.603V19.329L9.05634 18.0725V9.17777L16.7643 4.04104L19.6323 5.20451L12.2733 10.1202ZM27.8697 18.1947L20.1151 22.7555L13.1808 19.8119V17.8805L19.929 20.7194C20.0991 20.7916 20.2935 20.7787 20.4525 20.6845L26.0197 17.4093L27.8697 18.1947ZM20.1151 19.5559L13.1808 16.6123V14.681L19.9348 17.5489C20.1049 17.6211 20.2993 17.6082 20.4584 17.514L26.0256 14.2389L27.8697 14.9951L20.1151 19.5559Z" fill="black"/>
</svg>
