<svg width="30" height="30" viewBox="0 0 30 30" fill="none" xmlns="http://www.w3.org/2000/svg">
<path d="M29.2289 9.74631L20.2537 0.771054C19.2255 -0.257077 17.5526 -0.256959 16.5246 0.771054L5.26235 12.0334H2.63683C1.18288 12.0334 0 13.2163 0 14.6702V27.3632C0 28.8171 1.18288 30 2.63683 30H22.8303C24.2842 30 25.4671 28.8171 25.4671 27.3632V17.2371L29.2289 13.4753C30.257 12.4472 30.257 10.7744 29.2289 9.74631ZM17.7677 2.01406C17.9391 1.84272 18.1641 1.757 18.3892 1.757C18.6143 1.757 18.8393 1.84272 19.0107 2.01406L23.6354 6.63877L18.2408 12.0334H7.74829L17.7677 2.01406ZM23.7092 27.3632C23.7092 27.8478 23.3149 28.2421 22.8303 28.2421H2.63683C2.15218 28.2421 1.75789 27.8478 1.75789 27.3632V14.6702C1.75789 14.1856 2.15218 13.7913 2.63683 13.7913H22.8303C23.3149 13.7913 23.7092 14.1856 23.7092 14.6702V27.3632ZM23.1879 12.0583C23.0709 12.0423 22.9516 12.0334 22.8303 12.0334H20.7268L24.8784 7.88171L26.1214 9.12478L23.1879 12.0583ZM27.9859 12.2324L25.4671 14.7512V14.6702C25.4671 14.0021 25.2168 13.3916 24.8058 12.9264L27.3644 10.3678L27.9859 10.9893C28.3286 11.332 28.3286 11.8896 27.9859 12.2324Z" fill="black"/>
<path d="M3.42969 23.7141H6.85826V25.7141H3.42969V23.7141Z" fill="black"/>
<path d="M8.57031 23.7141H11.7132V25.7141H8.57031V23.7141Z" fill="black"/>
<path d="M13.7148 23.7141H16.8577V25.7141H13.7148V23.7141Z" fill="black"/>
<path d="M18.5703 23.7141H21.9989V25.7141H18.5703V23.7141Z" fill="black"/>
<path d="M9.42969 16.5713H3.42969V21.7141H9.42969V16.5713ZM7.65221 19.9999H5.20717V18.2856H7.65221V19.9999Z" fill="black"/>
</svg>
