<svg width="22" height="30" viewBox="0 0 22 30" fill="none" xmlns="http://www.w3.org/2000/svg">
<path d="M4.74758 10.0537L10.607 7.12402C10.8544 7.00033 11.1456 7.00033 11.393 7.12402L17.2524 10.0537C17.5502 10.2025 17.7383 10.5069 17.7383 10.8398V13.1835C17.7383 13.6689 17.3448 14.0625 16.8594 14.0625H15.9805V19.9218H16.8594C17.3448 19.9218 17.7383 20.3153 17.7383 20.8007C17.7383 21.2861 17.3448 21.6796 16.8594 21.6796H5.14062C4.65523 21.6796 4.26172 21.2861 4.26172 20.8007C4.26172 20.3153 4.65523 19.9218 5.14062 19.9218H6.01953V14.0625H5.14062C4.65523 14.0625 4.26172 13.6689 4.26172 13.1835V10.8398C4.26172 10.5069 4.4498 10.2025 4.74758 10.0537ZM11.8789 19.9218H14.2227V14.0625H11.8789V19.9218ZM7.77734 19.9218H10.1211V14.0625H7.77734V19.9218ZM6.01953 12.3046H15.9805V11.383L11 8.89279L6.01953 11.383V12.3046Z" fill="black"/>
<path d="M3.38281 0H18.6172C20.0711 0 21.2539 1.18283 21.2539 2.63672V27.3633C21.2539 28.8172 20.0711 30 18.6172 30H3.38281C1.92893 30 0.746094 28.8172 0.746094 27.3633V2.63672C0.746094 1.18283 1.92893 0 3.38281 0ZM2.50391 27.3633C2.50391 27.8479 2.89818 28.2422 3.38281 28.2422H18.6172C19.1018 28.2422 19.4961 27.8479 19.4961 27.3633V25.3125H2.50391V27.3633ZM2.50391 23.5547H19.4961V2.63672C19.4961 2.15209 19.1018 1.75781 18.6172 1.75781H3.38281C2.89818 1.75781 2.50391 2.15209 2.50391 2.63672V23.5547Z" fill="black"/>
<path d="M12.7578 5.27344H9.24219C8.7568 5.27344 8.36328 4.87992 8.36328 4.39453C8.36328 3.90914 8.7568 3.51562 9.24219 3.51562H12.7578C13.2432 3.51562 13.6367 3.90914 13.6367 4.39453C13.6367 4.87992 13.2432 5.27344 12.7578 5.27344Z" fill="black"/>
</svg>
